# xmcd
#
# Track frame offsets: 
#        150
#        11347
#        33425
#        55104
#        75497
#        90875
#        106175
#        123697
#        140471
#        153368
#        169246
#
# Disc length: 2543 seconds
#
# Revision: 0
# Processed by: cddbd v1.5.2PL0 Copyright (c) Steve Scherf et al.
# Submitted via: ExactAudioCopy v0.95a4
#
DISCID=7a09ed0b
DTITLE=The Veldman Brothers - Livin' by the day
DYEAR=2014
DGENRE=Blues
TTITLE0=Frenzy
TTITLE1=I Want You
TTITLE2=Real Deal
TTITLE3=Cryin' Shame
TTITLE4=Livin' By The Day
TTITLE5=Don't Take Me For A Clown
TTITLE6=Can't Wait Much Longer
TTITLE7=Little Things
TTITLE8=Struggle
TTITLE9=Trembles
TTITLE10=What Do You Know
EXTD=Year: 2014\n\n\n\n                                               
EXTD=   www.veldmanbrothers.nl\n\n\n                        
EXTD=          www.youtube.com/user/theveldmanbrothers1
EXTT0=
EXTT1=
EXTT2=
EXTT3=
EXTT4=
EXTT5=
EXTT6=
EXTT7=
EXTT8=
EXTT9=
EXTT10=
PLAYORDER=
